<?xml version="1.0" encoding="UTF-8"?>
<svg version="1.1" xmlns="http://www.w3.org/2000/svg" width="155" height="123">
<path d="M0 0 C18.1188755 0.58447985 36.62310442 8.84140576 49 22 C55.77482165 30.66148085 60.3513152 39.73295296 59 51 C57.34489268 57.69417167 55.20322643 63.88725272 52 70 C51.34 70 50.68 70 50 70 C48.98571486 67.96539231 47.98913211 65.92195394 47 63.875 C46.1646875 62.16957031 46.1646875 62.16957031 45.3125 60.4296875 C43.99495031 56.98680467 43.73422718 54.64330238 44 51 C43.01 51 42.02 51 41 51 C39.24609375 48.55078125 39.24609375 48.55078125 37.4375 45.3125 C36.83808594 44.25675781 36.23867187 43.20101562 35.62109375 42.11328125 C34.23100479 39.44364052 33.05045137 36.81688203 32 34 C31.34 34 30.68 34 30 34 C29.34 33.34 28.68 32.68 28 32 C29.29058184 34.68772549 30.72005049 37.14784628 32.375 39.625 C34.36272071 42.73773565 35.77185556 45.79127694 37.0625 49.25 C38.16269654 52.16618359 38.77906401 53.77906401 41 56 C45.17100209 60.17100209 47 66.21672678 47 72 C36.84784443 72.81217245 26.21919969 69.83217597 18.0234375 63.75390625 C7.30682758 54.46479843 0.55255784 42.10894248 -0.546875 27.8515625 C-0.6297426 26.11003022 -0.69721038 24.36770335 -0.75 22.625 C-0.78601318 21.71468018 -0.82202637 20.80436035 -0.85913086 19.86645508 C-1.07878153 13.17276448 -0.89450572 6.64686555 0 0 Z " fill="#419A51" transform="translate(29,16)"/>
<path d="M0 0 C5.53863241 2.82156745 10.63281788 7.12938835 13 13 C13.71578616 19.15390182 13.69861771 24.82193521 10 30 C5.22526357 34.66863117 1.24707864 36.69934457 -5.375 37.3125 C-9.76315676 36.93421062 -12.95062302 35.70500083 -17 34 C-18.81364559 37.99002031 -19.76905426 41.61203098 -20 46 C-18.69280737 49.36878771 -18.69280737 49.36878771 -17 52 C-16.071875 51.835 -15.14375 51.67 -14.1875 51.5 C-0.75531447 49.67453057 -0.75531447 49.67453057 4.9375 52.625 C9.07780324 55.83584741 11.34797658 59.04392975 13 64 C13.49914836 69.2124181 13.67229146 73.60370235 11.375 78.375 C7.58994728 82.55847932 3.66589636 86.71229628 -2 88 C-9.82637975 88.10522864 -14.5134683 86.2928355 -20.25 80.875 C-24.40892134 74.04248638 -24.35460798 67.43351384 -22.5078125 59.8359375 C-22.34023437 59.23007813 -22.17265625 58.62421875 -22 58 C-23.175625 57.525625 -24.35125 57.05125 -25.5625 56.5625 C-26.22378906 56.29566406 -26.88507813 56.02882812 -27.56640625 55.75390625 C-30.67614445 54.79053631 -33.77494601 54.4026431 -37 54 C-37.02689449 51.04160645 -37.04678741 48.08345573 -37.0625 45.125 C-37.07087891 44.28324219 -37.07925781 43.44148438 -37.08789062 42.57421875 C-37.09111328 41.76855469 -37.09433594 40.96289062 -37.09765625 40.1328125 C-37.10289307 39.38918457 -37.10812988 38.64555664 -37.11352539 37.87939453 C-37 36 -37 36 -36 34 C-34.109375 33.47265625 -34.109375 33.47265625 -31.75 33.0625 C-27.97025738 32.3089628 -25.18364218 31.25935897 -22 29 C-22.33 27.989375 -22.66 26.97875 -23 25.9375 C-24.7687613 19.55457879 -24.44568938 14.663921 -21.2734375 8.859375 C-16.05612809 1.2414631 -8.8627656 -1.13769257 0 0 Z M-14 8 C-9.96689877 12.40117729 -9.96689877 12.40117729 -4.5 14.25 C-2 15 -2 15 -0.5 17.75 C-0.005 18.8225 0.49 19.895 1 21 C3.56197123 23.81356892 3.56197123 23.81356892 6 26 C8.29205135 22.97449222 9.00746834 21.4107589 8.9375 17.5625 C7.56328766 12.34049312 5.71583429 9.14388953 1.1875 6.125 C-4.72448399 4.03841742 -8.90230673 4.29258671 -14 8 Z M-16 10 C-18.75101957 12.75101957 -18.68248934 15.02938969 -19.046875 18.80078125 C-19.16893389 21.16983811 -19.16893389 21.16983811 -17.5625 23.5625 C-16.7890625 24.2740625 -16.7890625 24.2740625 -16 25 C-14.02 22.69 -12.04 20.38 -10 18 C-10.61875 17.236875 -11.2375 16.47375 -11.875 15.6875 C-14 13 -14 13 -16 10 Z M-8.4921875 25.28515625 C-10.068996 27.11889451 -10.068996 27.11889451 -12 30 C-9.55028376 31.22485812 -7.85765539 31.16722808 -5.125 31.1875 C-4.26132813 31.20167969 -3.39765625 31.21585938 -2.5078125 31.23046875 C0.1241288 30.98859252 1.73980544 30.32983541 4 29 C-1.75485305 23.73579688 -1.75485305 23.73579688 -8.4921875 25.28515625 Z M4 26 C5 28 5 28 5 28 Z M-12 57 C-10.84826645 59.46800047 -9.95216435 61.04783565 -8 63 C-5.54230847 63.41679297 -5.54230847 63.41679297 -3 63 C-1.33333333 61.66666667 -1.33333333 61.66666667 0 60 C0.99 59.34 1.98 58.68 3 58 C-2.30202104 54.46531931 -6.1863508 54.64685628 -12 57 Z M3 59 C0.06907613 65.7845303 0.06907613 65.7845303 -1 73 C-2.051875 73.04125 -3.10375 73.0825 -4.1875 73.125 C-9.18472055 74.27190308 -10.12285398 75.90224658 -13 80 C-8.94483602 82.70344265 -5.76019337 82.64393027 -1 82 C3.48413709 79.884841 6.14573 77.22219156 8.3671875 72.86328125 C9.49237721 69.55022267 9.03365156 67.28336379 8 64 C5.58363062 61.08113411 5.58363062 61.08113411 3 59 Z M-17 62 C-19.23150482 66.33174464 -18.97917594 69.28215229 -18 74 C-17.67 74.66 -17.34 75.32 -17 76 C-14.15616877 74.7251791 -11.86245982 73.54862922 -10 71 C-9.78447645 69.00891317 -9.78447645 69.00891317 -11 67 C-12.90302941 65.16005444 -14.89068293 63.61564712 -17 62 Z " fill="#4D965F" transform="translate(125,20)"/>
<path d="M0 0 C3.26110985 3.26110985 2.92167567 7.10710259 3.3125 11.5625 C3.21795594 19.74056159 -0.26248044 27.86765608 -4 35 C-4.66 35 -5.32 35 -6 35 C-7.01428514 32.96539231 -8.01086789 30.92195394 -9 28.875 C-9.8353125 27.16957031 -9.8353125 27.16957031 -10.6875 25.4296875 C-12.00504969 21.98680467 -12.26577282 19.64330238 -12 16 C-12.99 16 -13.98 16 -15 16 C-16.859375 13.48046875 -16.859375 13.48046875 -18.75 10.1875 C-19.70132813 8.56908203 -19.70132813 8.56908203 -20.671875 6.91796875 C-22 4 -22 4 -21 1 C-19 2 -19 2 -17.875 5.0625 C-17.58625 6.031875 -17.2975 7.00125 -17 8 C-13.99615946 7.3045656 -13.99615946 7.3045656 -11 6 C-10.67 4.68 -10.34 3.36 -10 2 C-9.67 4.97 -9.34 7.94 -9 11 C-8.34 9.02 -7.68 7.04 -7 5 C-5.68 5 -4.36 5 -3 5 C-2.67 4.01 -2.34 3.02 -2 2 C-1.34 1.34 -0.68 0.68 0 0 Z " fill="#3B904D" transform="translate(85,51)"/>
<path d="M0 0 C0.66 0 1.32 0 2 0 C1.875 1.6875 1.875 1.6875 1 4 C-0.97956942 5.69088222 -2.97945196 7.35830472 -5 9 C-5.33 9.99 -5.66 10.98 -6 12 C-6.66 12 -7.32 12 -8 12 C-7.85764543 13.72945653 -7.71095618 15.45855654 -7.5625 17.1875 C-7.44068359 18.63189453 -7.44068359 18.63189453 -7.31640625 20.10546875 C-7.02286324 22.79084368 -6.56618502 25.36070675 -6 28 C-5.3125 31.6875 -5.3125 31.6875 -5 35 C-5.66 35.66 -6.32 36.32 -7 37 C-7 35.35 -7 33.7 -7 32 C-8.175625 31.525625 -9.35125 31.05125 -10.5625 30.5625 C-11.22378906 30.29566406 -11.88507813 30.02882813 -12.56640625 29.75390625 C-15.67614445 28.79053631 -18.77494601 28.4026431 -22 28 C-22.02689449 25.04160645 -22.04678741 22.08345573 -22.0625 19.125 C-22.07087891 18.28324219 -22.07925781 17.44148438 -22.08789062 16.57421875 C-22.09111328 15.76855469 -22.09433594 14.96289062 -22.09765625 14.1328125 C-22.10289307 13.38918457 -22.10812988 12.64555664 -22.11352539 11.87939453 C-22 10 -22 10 -21 8 C-19.109375 7.47265625 -19.109375 7.47265625 -16.75 7.0625 C-11.89237763 6.0817082 -8.53822175 4.53822175 -5 1 C-5 1.99 -5 2.98 -5 4 C-4.01 4 -3.02 4 -2 4 C-1.34 2.68 -0.68 1.36 0 0 Z " fill="#409351" transform="translate(110,46)"/>
<path d="M0 0 C1.50559539 1.96382007 2.89131683 3.78263366 4 6 C5.3921875 5.7525 5.3921875 5.7525 6.8125 5.5 C20.24468553 3.67453057 20.24468553 3.67453057 25.9375 6.625 C30.07780324 9.83584741 32.34797658 13.04392975 34 18 C34.0685495 19.89470816 34.08480372 21.7916834 34.0625 23.6875 C34.05347656 24.68136719 34.04445312 25.67523438 34.03515625 26.69921875 C34.02355469 27.45847656 34.01195312 28.21773437 34 29 C33.01 29 32.02 29 31 29 C30.01 31.475 30.01 31.475 29 34 C28.34 33.67 27.68 33.34 27 33 C27.33 32.319375 27.66 31.63875 28 30.9375 C29.6120757 26.20202763 29.55920794 22.50103184 27.8125 17.8125 C25.1801409 13.72780484 22.78878256 11.49476964 18.0625 10.1875 C14.82144999 9.98906837 12.14535558 10.19537415 9 11 C8.67 11.66 8.34 12.32 8 13 C8 11.68 8 10.36 8 9 C7.236875 8.938125 6.47375 8.87625 5.6875 8.8125 C3 8 3 8 1.1875 5.625 C0 3 0 3 0 0 Z " fill="#549A69" transform="translate(104,66)"/>
<path d="M0 0 C3.37462715 0.54723683 5.08235 1.0549 8 3 C9.485 3.37125 9.485 3.37125 11 3.75 C14 5 14 5 15.6875 7.8125 C16.3371875 9.3903125 16.3371875 9.3903125 17 11 C17.86625 12.36125 17.86625 12.36125 18.75 13.75 C19.1625 14.4925 19.575 15.235 20 16 C19.67 16.66 19.34 17.32 19 18 C15.73045798 17.43628586 14.17424117 16.50037734 12 14 C12.66 14 13.32 14 14 14 C12.515 9.545 12.515 9.545 11 5 C9.68 5.33 8.36 5.66 7 6 C6.31974363 7.99541868 5.65509503 9.99617991 5 12 C2.5 14.6875 2.5 14.6875 0 17 C-0.66 17.99 -1.32 18.98 -2 20 C-2.99 20 -3.98 20 -5 20 C-5.625 17.625 -5.625 17.625 -6 15 C-5.34 14.34 -4.68 13.68 -4 13 C-3.01 13.33 -2.02 13.66 -1 14 C0.65 12.02 2.3 10.04 4 8 C3.01 6.8553125 3.01 6.8553125 2 5.6875 C0 3 0 3 0 0 Z " fill="#549267" transform="translate(110,30)"/>
<path d="M0 0 C0.66 0.33 1.32 0.66 2 1 C1.34 2.65 0.68 4.3 0 6 C0.45375 5.34 0.9075 4.68 1.375 4 C1.91125 3.34 2.4475 2.68 3 2 C3.66 2 4.32 2 5 2 C3.39526283 8.0623404 -1.20398783 11.26193838 -6.3125 14.4375 C-12.06983563 15.64252374 -17.30538003 14.87757106 -22.5 12.1875 C-24.88427311 10.10126103 -25.73074132 8.80294625 -27 6 C-26.53851563 6.38414063 -26.07703125 6.76828125 -25.6015625 7.1640625 C-22.60660957 9.37772336 -20.28644276 10.96798898 -16.48828125 11.0625 C-10.57068076 10.04753636 -6.49840441 7.93610386 -2 4 C-0.54949504 1.86624263 -0.54949504 1.86624263 0 0 Z " fill="#61A372" transform="translate(132,93)"/>
<path d="M0 0 C0.33 0 0.66 0 1 0 C1.66534641 9.30006424 0.57756394 15.84212711 -4 24 C-4.66 24 -5.32 24 -6 24 C-8.03435531 20.27034861 -9 18.33094958 -9 14 C-8.01 14 -7.02 14 -6 14 C-6.226875 12.906875 -6.45375 11.81375 -6.6875 10.6875 C-7 7 -7 7 -5.75 5.125 C-4 4 -4 4 -1 3 C-0.67 2.01 -0.34 1.02 0 0 Z " fill="#419B51" transform="translate(85,62)"/>
<path d="M0 0 C4.78702722 3.9005407 8.09494382 10.18779368 9.515625 16.171875 C10.22867035 18.86304617 11.97737707 20.17311477 14 22 C13.67 22.66 13.34 23.32 13 24 C12.34 23.01 11.68 22.02 11 21 C10.01 20.67 9.02 20.34 8 20 C8 19.34 8 18.68 8 18 C7.278125 17.731875 6.55625 17.46375 5.8125 17.1875 C-1.52513966 14.08938547 -1.52513966 14.08938547 -3.0625 10.5625 C-2.97759207 7.08127483 -1.42685391 6.35101472 1 4 C0.86358623 1.78141747 0.86358623 1.78141747 0 0 Z " fill="#3D8850" transform="translate(58,52)"/>
<path d="M0 0 C0.99 0 1.98 0 3 0 C2.21824485 4.84688192 0.60155722 9.3766367 -1 14 C-3.31 13.34 -5.62 12.68 -8 12 C-9.125 5.25 -9.125 5.25 -8 3 C-6.8553125 3.0928125 -6.8553125 3.0928125 -5.6875 3.1875 C-2.49347163 2.96466081 -2.0779007 2.26680076 0 0 Z " fill="#4A8A5F" transform="translate(125,79)"/>
<path d="M0 0 C1.58109965 0.1404204 3.1617456 0.28595435 4.7421875 0.43359375 C6.06259033 0.55432251 6.06259033 0.55432251 7.40966797 0.67749023 C10.7719895 1.09611669 13.78339122 1.95110583 17 3 C17 3.66 17 4.32 17 5 C15.4372038 4.85737588 13.87477304 4.71074489 12.3125 4.5625 C11.44238281 4.48128906 10.57226562 4.40007813 9.67578125 4.31640625 C7.09779359 4.01156391 4.54553705 3.50910741 2 3 C2 12.57 2 22.14 2 32 C1.34 32 0.68 32 0 32 C-1.61974301 21.35953438 -0.65623448 10.68575922 0 0 Z " fill="#5A946E" transform="translate(29,16)"/>
<path d="M0 0 C2 1 2 1 3.125 4.0625 C3.41375 5.031875 3.7025 6.00125 4 7 C7.00384054 6.3045656 7.00384054 6.3045656 10 5 C10.96877057 2.96756452 10.96877057 2.96756452 11 1 C12.16306443 4.54950034 11.92365049 7.55823948 11.5625 11.25 C11.46066406 12.32765625 11.35882813 13.4053125 11.25390625 14.515625 C11.17011719 15.33546875 11.08632812 16.1553125 11 17 C10.34 16.34 9.68 15.68 9 15 C8.01 15 7.02 15 6 15 C4.140625 12.48046875 4.140625 12.48046875 2.25 9.1875 C1.29867187 7.56908203 1.29867187 7.56908203 0.328125 5.91796875 C-1 3 -1 3 0 0 Z " fill="#30773F" transform="translate(64,52)"/>
<path d="M0 0 C1.50559539 1.96382007 2.89131683 3.78263366 4 6 C5.3921875 5.7525 5.3921875 5.7525 6.8125 5.5 C11.85733621 4.76299718 16.91435711 4.91723185 22 5 C20.2109375 8.9140625 20.2109375 8.9140625 18.3125 9.6875 C16.3150909 9.95742015 14.31402651 10.20003075 12.3125 10.4375 C11.219375 10.623125 10.12625 10.80875 9 11 C8.67 11.66 8.34 12.32 8 13 C8 11.68 8 10.36 8 9 C7.236875 8.938125 6.47375 8.87625 5.6875 8.8125 C3 8 3 8 1.1875 5.625 C0 3 0 3 0 0 Z " fill="#3B7B4E" transform="translate(104,66)"/>
<path d="M0 0 C0 0.66 0 1.32 0 2 C0.66 2.33 1.32 2.66 2 3 C1.34 3 0.68 3 0 3 C0.6954344 6.00384054 0.6954344 6.00384054 2 9 C4.03243548 9.96877057 4.03243548 9.96877057 6 10 C6 10.66 6 11.32 6 12 C4.576875 12.4021875 4.576875 12.4021875 3.125 12.8125 C-0.25267273 13.74986588 -0.25267273 13.74986588 -2 17 C-3.32 16.67 -4.64 16.34 -6 16 C-5.36290323 12.30483871 -5.36290323 12.30483871 -3.4375 10.6875 C-1.16261457 8.01698232 -1.80954161 5.36476492 -2 2 C-2.66 1.67 -3.32 1.34 -4 1 C-2 0 -2 0 0 0 Z " fill="#579A6A" transform="translate(116,82)"/>
<path d="M0 0 C2 3 2 3 2 7 C-5.73300788 7.61864063 -12.74204379 5.60981627 -20 3 C-20.66 2.34 -21.32 1.68 -22 1 C-15.09962119 0.66309181 -10.19414942 0.90292529 -4 4 C-3.01 4 -2.02 4 -1 4 C-0.67 2.68 -0.34 1.36 0 0 Z " fill="#499159" transform="translate(74,81)"/>
<path d="M0 0 C4.97093824 0.41153737 9.44508386 0.79600832 14 3 C13.67 3.99 13.34 4.98 13 6 C13.721875 6.268125 14.44375 6.53625 15.1875 6.8125 C17.99766383 7.99901362 20.48416557 9.27485639 23 11 C23 11.66 23 12.32 23 13 C18.34329586 12.37071566 18.34329586 12.37071566 16.77734375 10.6796875 C14.18802774 8.2326416 11.06633827 6.93646192 7.875 5.4375 C1.13454012 2.26908023 1.13454012 2.26908023 0 0 Z " fill="#4D9E62" transform="translate(43,59)"/>
<path d="M0 0 C1.12894876 0.93274109 2.25300876 1.87140122 3.375 2.8125 C4.00148438 3.33457031 4.62796875 3.85664062 5.2734375 4.39453125 C7 6 7 6 9 9 C9 9.99 9 10.98 9 12 C11.97 12.495 11.97 12.495 15 13 C15.33 12.01 15.66 11.02 16 10 C17 11 17 11 17.09765625 12.84765625 C17.06510417 14.8984375 17.03255208 16.94921875 17 19 C12.78103777 18.53122642 10.5943761 16.10651268 8 13 C0 2.67597765 0 2.67597765 0 0 Z " fill="#296542" transform="translate(46,32)"/>
<path d="M0 0 C0.33 0.66 0.66 1.32 1 2 C1.66 2 2.32 2 3 2 C3.66 1.34 4.32 0.68 5 0 C4.98839844 0.61488281 4.97679688 1.22976562 4.96484375 1.86328125 C4.95582031 2.67152344 4.94679688 3.47976562 4.9375 4.3125 C4.92589844 5.11300781 4.91429688 5.91351563 4.90234375 6.73828125 C4.90342145 9.16861334 4.90342145 9.16861334 6 12 C5.01 12.33 4.02 12.66 3 13 C2.34 13.66 1.68 14.32 1 15 C-1.44723163 9.95258476 -1.77882289 5.33646866 0 0 Z " fill="#468658" transform="translate(102,32)"/>
<path d="M0 0 C8.20766249 1.094355 15.05274475 4.61661276 22 9 C22.33 9.66 22.66 10.32 23 11 C19.6341541 10.43902568 17.01888813 9.56149386 14 8 C13.34 8 12.68 8 12 8 C11.67 7.34 11.34 6.68 11 6 C8.9862542 5.16376649 8.9862542 5.16376649 6.625 4.5 C3.57365243 3.58558965 1.7053551 2.80357007 -1 1 C-0.67 0.67 -0.34 0.34 0 0 Z " fill="#4E905D" transform="translate(46,20)"/>
<path d="M0 0 C1.22589844 0.15275391 1.22589844 0.15275391 2.4765625 0.30859375 C3.41628906 0.43427734 3.41628906 0.43427734 4.375 0.5625 C4.375 0.8925 4.375 1.2225 4.375 1.5625 C2.065 1.8925 -0.245 2.2225 -2.625 2.5625 C-1.99851562 2.61148437 -1.37203125 2.66046875 -0.7265625 2.7109375 C0.09070313 2.78570313 0.90796875 2.86046875 1.75 2.9375 C2.96816406 3.04191406 2.96816406 3.04191406 4.2109375 3.1484375 C6.375 3.5625 6.375 3.5625 8.375 5.5625 C2.765 5.5625 -2.845 5.5625 -8.625 5.5625 C-8.955 4.9025 -9.285 4.2425 -9.625 3.5625 C-6.31895231 0.10617742 -4.76864375 -0.61311134 0 0 Z " fill="#529868" transform="translate(119.625,20.4375)"/>
<path d="M0 0 C0.66 0.33 1.32 0.66 2 1 C1.67 1.99 1.34 2.98 1 4 C1.66 4.33 2.32 4.66 3 5 C1.125 10.75 1.125 10.75 0 13 C-0.66 13 -1.32 13 -2 13 C-5 7.25 -5 7.25 -5 5 C-4.01 4.67 -3.02 4.34 -2 4 C-0.79117904 1.99983534 -0.79117904 1.99983534 0 0 Z " fill="#3C854A" transform="translate(81,73)"/>
<path d="M0 0 C1.77049689 -0.05410687 3.54146849 -0.09284119 5.3125 -0.125 C6.29863281 -0.14820312 7.28476563 -0.17140625 8.30078125 -0.1953125 C11 0 11 0 14 2 C13.67 2.66 13.34 3.32 13 4 C13 4.33 13 4.66 13 5 C12.67619874 6.33568021 12.34342449 7.66923011 12 9 C8 6 4 3 0 0 Z " fill="#428355" transform="translate(118,72)"/>
<path d="M0 0 C1.06775224 1.96466413 2.06553465 3.96855359 3 6 C2.67 6.66 2.34 7.32 2 8 C-0.97 8 -3.94 8 -7 8 C-3.8 0 -3.8 0 0 0 Z " fill="#409B53" transform="translate(121,35)"/>
<path d="M0 0 C0.721875 0.144375 1.44375 0.28875 2.1875 0.4375 C3.5796875 0.7159375 3.5796875 0.7159375 5 1 C6.66666667 1.33333333 8.33333333 1.66666667 10 2 C10.12375 2.86625 10.12375 2.86625 10.25 3.75 C11.20531013 6.6159304 12.78469173 7.9990764 15 10 C14.67 10.66 14.34 11.32 14 12 C13.34 11.01 12.68 10.02 12 9 C11.01 8.67 10.02 8.34 9 8 C9 7.34 9 6.68 9 6 C8.2575 5.7525 7.515 5.505 6.75 5.25 C3.79875938 3.90852699 2.15185026 2.39094474 0 0 Z " fill="#32754C" transform="translate(57,64)"/>
<path d="M0 0 C1.98 0 3.96 0 6 0 C6.66 2.31 7.32 4.62 8 7 C5.69 6.34 3.38 5.68 1 5 C0.67 3.35 0.34 1.7 0 0 Z " fill="#409D4F" transform="translate(116,86)"/>
<path d="M0 0 C5.94 0.99 5.94 0.99 12 2 C12.66 3.98 13.32 5.96 14 8 C9.02790438 6.23570801 4.56561939 3.6060834 0 1 C0 0.67 0 0.34 0 0 Z " fill="#2B6F44" transform="translate(44,44)"/>
<path d="M0 0 C2.22698735 3.34048103 2.2711921 4.53285581 2.25 8.4375 C2.25515625 9.38496094 2.2603125 10.33242188 2.265625 11.30859375 C1.99748089 14.02552453 1.38531142 15.67465583 0 18 C-0.66 18 -1.32 18 -2 18 C-1.7834375 17.05640625 -1.7834375 17.05640625 -1.5625 16.09375 C-0.36985553 10.59433381 0.2082715 5.62333057 0 0 Z " fill="#5C9B70" transform="translate(136,30)"/>
<path d="M0 0 C1.34084736 0.30169066 2.6806062 0.61517681 4 1 C4 1.66 4 2.32 4 3 C-6.55808656 2.03644647 -6.55808656 2.03644647 -11 1 C-7.09505171 -1.60329886 -4.37202275 -0.80930803 0 0 Z " fill="#55926A" transform="translate(42,18)"/>
<path d="M0 0 C0.928125 0.2784375 0.928125 0.2784375 1.875 0.5625 C4.04160178 1.23686176 4.04160178 1.23686176 6 0 C4.125 4.75 4.125 4.75 3 7 C2.01 7 1.02 7 0 7 C-1.125 2.25 -1.125 2.25 0 0 Z " fill="#4B9862" transform="translate(105,43)"/>
<path d="M0 0 C3.59905908 0.55550695 4.99909799 1.74887248 7.25 4.5625 C8.03117187 5.52349609 8.03117187 5.52349609 8.828125 6.50390625 C9.21484375 6.99761719 9.6015625 7.49132813 10 8 C9.34 8.66 8.68 9.32 8 10 C8 9.34 8 8.68 8 8 C7.34 8 6.68 8 6 8 C5.67 6.68 5.34 5.36 5 4 C4.01 4 3.02 4 2 4 C2 3.34 2 2.68 2 2 C1.34 2 0.68 2 0 2 C0 1.34 0 0.68 0 0 Z " fill="#468A57" transform="translate(71,34)"/>
<path d="M0 0 C0.99 0.99 1.98 1.98 3 3 C2.34 3.66 1.68 4.32 1 5 C0.67 5.99 0.34 6.98 0 8 C-1.32 6.68 -2.64 5.36 -4 4 C-4.99 4.495 -4.99 4.495 -6 5 C-6 4.01 -6 3.02 -6 2 C-4.02 2 -2.04 2 0 2 C0 1.34 0 0.68 0 0 Z " fill="#478C5E" transform="translate(113,79)"/>
<path d="M0 0 C0.99 0.33 1.98 0.66 3 1 C4.1875 3.5625 4.1875 3.5625 5 6 C1.25 7.125 1.25 7.125 -1 6 C-0.67 4.02 -0.34 2.04 0 0 Z " fill="#489C5A" transform="translate(67,72)"/>
<path d="M0 0 C0.33 0.66 0.66 1.32 1 2 C1.66 2 2.32 2 3 2 C3.66 1.34 4.32 0.68 5 0 C4.98839844 0.61488281 4.97679688 1.22976562 4.96484375 1.86328125 C4.95582031 2.67152344 4.94679688 3.47976562 4.9375 4.3125 C4.92589844 5.11300781 4.91429688 5.91351563 4.90234375 6.73828125 C4.90342145 9.16861334 4.90342145 9.16861334 6 12 C5.34 12 4.68 12 4 12 C3.566875 10.88625 3.566875 10.88625 3.125 9.75 C2.079967 7.06675308 2.079967 7.06675308 0.875 4.875 C0 3 0 3 0 0 Z " fill="#3F7B4F" transform="translate(102,32)"/>
<path d="M0 0 C0.66 0.33 1.32 0.66 2 1 C-2.625 4 -2.625 4 -6 4 C-6 4.99 -6 5.98 -6 7 C-6.66 7 -7.32 7 -8 7 C-8 6.34 -8 5.68 -8 5 C-8.99 5 -9.98 5 -11 5 C-11 4.34 -11 3.68 -11 3 C-10.37351562 2.86722656 -9.74703125 2.73445313 -9.1015625 2.59765625 C-8.28429687 2.42105469 -7.46703125 2.24445313 -6.625 2.0625 C-5.81289062 1.88847656 -5.00078125 1.71445313 -4.1640625 1.53515625 C-1.970537 1.07669307 -1.970537 1.07669307 0 0 Z " fill="#48A25A" transform="translate(129,101)"/>
<path d="M0 0 C3.125 0.375 3.125 0.375 6 1 C6.33 2.98 6.66 4.96 7 7 C6.01 7 5.02 7 4 7 C4 5.35 4 3.7 4 2 C2.02 2 0.04 2 -2 2 C-1.34 1.34 -0.68 0.68 0 0 Z " fill="#4A9B5C" transform="translate(118,84)"/>
<path d="M0 0 C0.33 0.66 0.66 1.32 1 2 C1.99 2.33 2.98 2.66 4 3 C3.67 5.31 3.34 7.62 3 10 C2 7 2 7 2 5 C-0.64 4.01 -3.28 3.02 -6 2 C-6 1.67 -6 1.34 -6 1 C-4.02 0.67 -2.04 0.34 0 0 Z " fill="#457E53" transform="translate(101,73)"/>
<path d="M0 0 C0.66 0.33 1.32 0.66 2 1 C2 1.99 2 2.98 2 4 C2.99 4.33 3.98 4.66 5 5 C5 5.66 5 6.32 5 7 C4.01 7 3.02 7 2 7 C1.67 7.66 1.34 8.32 1 9 C-1.09230769 4.56923077 -1.09230769 4.56923077 -0.625 1.6875 C-0.41875 1.130625 -0.2125 0.57375 0 0 Z " fill="#3C824E" transform="translate(74,69)"/>
<path d="M0 0 C2.56995074 1.28497537 2.90434463 2.49912373 4.125 5.0625 C4.47820312 5.79597656 4.83140625 6.52945313 5.1953125 7.28515625 C5.46085937 7.85105469 5.72640625 8.41695312 6 9 C5.34 9.66 4.68 10.32 4 11 C3.13341385 9.73760288 2.28207941 8.46472499 1.4375 7.1875 C0.72400391 6.12595703 0.72400391 6.12595703 -0.00390625 5.04296875 C-1 3 -1 3 0 0 Z " fill="#3B7A48" transform="translate(64,52)"/>
<path d="M0 0 C1 2 2 4 3 6 C2.01 6 1.02 6 0 6 C-0.66 7.65 -1.32 9.3 -2 11 C-2.66 10.67 -3.32 10.34 -4 10 C-3.67 9.236875 -3.34 8.47375 -3 7.6875 C-1.82563314 5.00930865 -1.82563314 5.00930865 -2 2 C-1.34 2 -0.68 2 0 2 C0 1.34 0 0.68 0 0 Z " fill="#3E9650" transform="translate(135,89)"/>
<path d="M0 0 C0.33 0.66 0.66 1.32 1 2 C3.02463255 2.65213292 3.02463255 2.65213292 5 3 C4.01 3.33 3.02 3.66 2 4 C1.67 5.65 1.34 7.3 1 9 C0.01 8.67 -0.98 8.34 -2 8 C-1.34 5.36 -0.68 2.72 0 0 Z " fill="#539C65" transform="translate(105,77)"/>
<path d="M0 0 C4.75481646 0.57634139 7.97048212 2.55068521 12 5 C9 6 9 6 6.73828125 5.00390625 C5.93777344 4.52824219 5.13726562 4.05257812 4.3125 3.5625 C3.50425781 3.08941406 2.69601563 2.61632813 1.86328125 2.12890625 C1.24839844 1.75636719 0.63351563 1.38382813 0 1 C0 0.67 0 0.34 0 0 Z " fill="#5AAF6E" transform="translate(43,59)"/>
<path d="M0 0 C0.78375 0.04125 1.5675 0.0825 2.375 0.125 C0.725 2.105 -0.925 4.085 -2.625 6.125 C-3.285 5.795 -3.945 5.465 -4.625 5.125 C-4.625 1.22254579 -3.95783286 0.18846823 0 0 Z " fill="#4F885E" transform="translate(133.625,47.875)"/>
<path d="M0 0 C7.75 -0.125 7.75 -0.125 10 1 C9.67 1.99 9.34 2.98 9 4 C5.17902761 3.46930939 2.93828597 2.50298434 0 0 Z " fill="#4E9D62" transform="translate(118,72)"/>
<path d="M0 0 C0.99 0.33 1.98 0.66 3 1 C3.33 3.31 3.66 5.62 4 8 C3.01 7.67 2.02 7.34 1 7 C0.67 4.69 0.34 2.38 0 0 Z " fill="#4A945A" transform="translate(132,80)"/>
<path d="M0 0 C0.66 0.66 1.32 1.32 2 2 C1 5 1 5 -1.0625 6.1875 C-1.701875 6.455625 -2.34125 6.72375 -3 7 C-3.33 6.01 -3.66 5.02 -4 4 C-3.67 3.34 -3.34 2.68 -3 2 C-2.01 2 -1.02 2 0 2 C0 1.34 0 0.68 0 0 Z " fill="#3C8D4E" transform="translate(72,76)"/>
<path d="M0 0 C0.66 0.33 1.32 0.66 2 1 C1.6875 3.375 1.6875 3.375 1 6 C0.01 6.66 -0.98 7.32 -2 8 C-2.33 7.01 -2.66 6.02 -3 5 C-1.5625 2.3125 -1.5625 2.3125 0 0 Z " fill="#488E56" transform="translate(84,71)"/>
<path d="M0 0 C0.33 0 0.66 0 1 0 C1.33 3.3 1.66 6.6 2 10 C1.01 10.495 1.01 10.495 0 11 C-0.66 8.36 -1.32 5.72 -2 3 C-1.34 3 -0.68 3 0 3 C0 2.01 0 1.02 0 0 Z " fill="#41865A" transform="translate(31,45)"/>
<path d="M0 0 C2.31 1.98 4.62 3.96 7 6 C6.67 6.99 6.34 7.98 6 9 C2.91910327 6.22719294 1.31224548 3.93673644 0 0 Z " fill="#2B7D4C" transform="translate(46,32)"/>
<path d="M0 0 C0.99 0.33 1.98 0.66 3 1 C4.1875 4.5625 4.1875 4.5625 5 8 C2 7 2 7 0.8125 5.125 C0 3 0 3 0 0 Z " fill="#458B5E" transform="translate(121,34)"/>
<path d="M0 0 C2 3 2 3 2 7 C-0.64 7 -3.28 7 -6 7 C-6 6.67 -6 6.34 -6 6 C-4.02 6 -2.04 6 0 6 C-0.185625 5.38125 -0.37125 4.7625 -0.5625 4.125 C-1 2 -1 2 0 0 Z " fill="#356A45" transform="translate(74,81)"/>
<path d="M0 0 C1.98 0.495 1.98 0.495 4 1 C4.33 2.65 4.66 4.3 5 6 C3.02 5.34 1.04 4.68 -1 4 C-0.67 2.68 -0.34 1.36 0 0 Z " fill="#419952" transform="translate(107,75)"/>
<path d="M0 0 C0.33 0 0.66 0 1 0 C1.41176754 3.60296594 1.1535853 4.78402067 -1 7.8125 C-1.66 8.534375 -2.32 9.25625 -3 10 C-3.66 9.67 -4.32 9.34 -5 9 C-4.54625 8.2575 -4.0925 7.515 -3.625 6.75 C-2.31359204 4.53069422 -1.11719197 2.32032178 0 0 Z " fill="#589A6E" transform="translate(115,36)"/>
<path d="M0 0 C0.66 0.33 1.32 0.66 2 1 C1.01 2.98 0.02 4.96 -1 7 C-2.32 6.34 -3.64 5.68 -5 5 C-3.35 3.35 -1.7 1.7 0 0 Z " fill="#4A8853" transform="translate(109,23)"/>
<path d="M0 0 C0.66 0 1.32 0 2 0 C1.8125 1.8125 1.8125 1.8125 1 4 C-1.5625 5.75 -1.5625 5.75 -4 7 C-4.33 6.01 -4.66 5.02 -5 4 C-4.01 4 -3.02 4 -2 4 C-1.34 2.68 -0.68 1.36 0 0 Z " fill="#419750" transform="translate(110,46)"/>
<path d="M0 0 C1.65 0 3.3 0 5 0 C5 0.66 5 1.32 5 2 C4.01 2 3.02 2 2 2 C1.67 3.65 1.34 5.3 1 7 C0.67 7 0.34 7 0 7 C0 4.69 0 2.38 0 0 Z " fill="#649A7A" transform="translate(29,16)"/>
<path d="M0 0 C1.70884005 1.62339805 3.37446717 3.29319053 5 5 C5 5.66 5 6.32 5 7 C3.35 6.67 1.7 6.34 0 6 C0 4.02 0 2.04 0 0 Z " fill="#4D9661" transform="translate(50,40)"/>
</svg>
